<svg viewBox="0 0 800 800" xmlns="http://www.w3.org/2000/svg"><path d="M428.75182747808634,350.19233545992245 L428.777324782195,84.73078953833436 M84.00259162350892,549.0124883025442 L83.72137244233375,283.37354528070944 M428.75182747808634,350.19233545992245 L84.00259162350892,549.0124883025442 M428.777324782195,84.73078953833436 L83.72137244233375,283.37354528070944 M643.0010958037678,342.4194296936196 L643.2169621775543,76.96482870194467 M643.0010958037678,342.4194296936196 L609.5214494641186,330.87220255752254 M609.5214494641186,330.87220255752254 L572.2420079058436,324.2613639320913 M572.2420079058436,324.2613639320913 L533.3115740681365,322.9672259765005 M533.3115740681365,322.9672259765005 L494.9735399937452,327.0642491064817 M494.9735399937452,327.0642491064817 L459.4373411562565,336.31673666132616 M459.4373411562565,336.31673666132616 L428.75182747808634,350.19233545992245 M643.2169621775543,76.96482870194467 L609.7075531933306,65.42792010193853 M609.7075531933306,65.42792010193853 L572.3949829021267,58.82298959884446 M572.3949829021267,58.82298959884446 L533.4299607585281,57.53000827836348 M533.4299607585281,57.53000827836348 L495.0578683329807,61.62336976447807 M495.0578683329807,61.62336976447807 L459.4901004687745,70.86758880337868 M459.4901004687745,70.86758880337868 L428.777324782195,84.73078953833436 M84.00259162350892,549.0124883025442 L62.0560883997702,564.7336047632244 M62.0560883997702,564.7336047632244 L46.426600987132076,582.800139385083 M46.426600987132076,582.800139385083 L37.83846352757115,602.3783034502908 M37.83846352757115,602.3783034502908 L36.69128654743838,622.5638587429073 M36.69128654743838,622.5638587429073 L43.04109066295854,642.4237594767128 M43.04109066295854,642.4237594767128 L56.597107317978384,661.0393253493596 M56.597107317978384,661.0393253493596 L76.73480784266008,677.5487259261829 M76.73480784266008,677.5487259261829 L76.66287243863542,611.1547263752061 M76.66287243863542,611.1547263752061 L64.39647627486255,602.0295196146344 M64.39647627486255,602.0295196146344 L54.16564281306819,592.1032934346388 M54.16564281306819,592.1032934346388 L46.124849054707056,581.5265300888188 M45.88850095989028,382.18693880701403 L46.124849054707056,581.5265300888188 M83.72137244233375,283.37354528070944 L60.681727940221094,300.057424025753 M60.681727940221094,300.057424025753 L44.761016640601554,319.30884521327664 M44.761016640601554,319.30884521327664 L36.78366915374221,340.1351668953626 M36.78366915374221,340.1351668953626 L37.16489952720349,361.4616755141703 M37.16489952720349,361.4616755141703 L45.88850095989028,382.18693880701403 M76.73480784266008,677.5487259261829 L83.72137244233375,681.8541000820915 M83.72137244233375,681.8541000820915 L141.17950024078345,715.1014486304325 M141.17950024078345,715.1014486304325 L156.49448752892826,722.9132638293063 M156.49448752892826,722.9132638293063 L190.0270014112616,734.5213058215932 M190.0270014112616,734.5213058215932 L227.39204706068543,741.1685824578394 M227.39204706068543,741.1685824578394 L266.42903317896184,742.4699917216365 M266.42903317896184,742.4699917216365 L304.88019362965014,738.3501039948073 M304.88019362965014,738.3501039948073 L340.5218341785564,729.0476487508449 M340.5218341785564,729.0476487508449 L371.2935434638841,715.1014486304325 M371.2935434638841,715.1014486304325 L716.0427794225011,515.8389817057797 M716.0427794225011,515.8389817057797 L737.9132612622855,500.1281592089905 M737.9132612622855,500.1281592089905 L753.4504851626018,482.081621653553 M753.4504851626018,482.081621653553 L761.9379731303054,462.53498184680336 M761.9379731303054,462.53498184680336 L762.9860184854927,442.39265215142365 M762.9860184854927,442.39265215142365 L756.5491346783535,422.58589626408013 M756.5491346783535,422.58589626408013 L742.9276794765601,404.02969918409036 M742.9276794765601,404.02969918409036 L722.7533663029365,387.58067975531463 M722.7533663029365,387.58067975531463 L715.7621844791727,383.2922458353018 M715.7621844791727,383.2922458353018 L658.3040563686036,350.19233545992245 M658.3040563686036,350.19233545992245 L643.0010958037678,342.4194296936196 M658.5335321055818,84.73078953833436 L643.2169621775543,76.96482870194467 M716.0427794225011,117.8011338867343 L658.5335321055818,84.73078953833436 M723.0401831945057,122.08573817849845 L716.0427794225011,117.8011338867343 M716.3238735895695,250.2296049947722 L738.2137793272184,234.53278954200238 M738.2137793272184,234.53278954200238 L753.7647853449378,216.5023450737749 M753.7647853449378,216.5023450737749 L762.2597797155815,196.97314045313448 M762.2597797155815,196.97314045313448 L763.3087134525615,176.84878204670832 M763.3087134525615,176.84878204670832 L756.8660642183747,157.05970275585986 M756.8660642183747,157.05970275585986 L743.2324612569423,138.52007044634382 M743.2324612569423,138.52007044634382 L723.0401831945057,122.08573817849845 M371.26792114529786,449.31467376942663 L716.3238735895695,250.2296049947722 M199.72575946492734,471.0372386585898 L235.67995687233525,476.1040394421499 M235.67995687233525,476.1040394421499 L272.69441850282004,476.3542431324377 M272.69441850282004,476.3542431324377 L308.8540411116533,471.7748576065688 M308.8540411116533,471.7748576065688 L342.2881734265701,462.60325474601507 M342.2881734265701,462.60325474601507 L371.26792114529786,449.31467376942663 M692.4795406357098,186.88285887029946 L199.72575946492734,471.0372386585898 M538.642212116979,98.3705268249393 L692.4795406357098,186.88285887029946 M45.88850095989028,382.18693880701403 L538.642212116979,98.3705268249393 M658.3040563686036,350.19233545992245 L658.5335321055818,84.73078953833436 M83.72137244233375,681.8541000820915 L83.65098943500823,615.4591450310547 M76.66287243863542,611.1547263752061 L83.65098943500823,615.4591450310547 M692.2846539806203,386.0917272309621 L538.5499063525476,297.5200387194518 M199.85952680938763,670.436187078386 L692.2846539806203,386.0917272309621 M199.85952680938763,670.436187078386 L184.58756769044388,666.6577862595018 M184.58756769044388,666.6577862595018 L170.06398575432388,661.9992119050426 M170.06398575432388,661.9992119050426 L156.44028122110964,656.509199210951 M141.12188851303762,648.6991167892536 L156.44028122110964,656.509199210951 M83.65098943500823,615.4591450310547 L141.12188851303762,648.6991167892536 M538.5499063525476,297.5200387194518 L46.124849054707056,581.5265300888188 M538.5499063525476,297.5200387194518 L538.642212116979,98.3705268249393 M141.17950024078345,715.1014486304325 L141.12188851303762,648.6991167892536 M156.49448752892826,722.9132638293063 L156.44028122110964,656.509199210951 M371.2935434638841,715.1014486304325 L371.26792114529786,449.31467376942663 M199.72575946492734,471.0372386585898 L199.85952680938763,670.436187078386 M716.0427794225011,515.8389817057797 L716.3238735895695,250.2296049947722 M722.7533663029365,387.58067975531463 L723.0401831945057,122.08573817849845 M715.7621844791727,383.2922458353018 L716.0427794225011,117.8011338867343 M692.2846539806203,386.0917272309621 L692.4795406357098,186.88285887029946" stroke="black"  stroke-width="4"  fill="red"/></svg>